<svg width="13" height="16" viewBox="0 0 13 16" fill="none" xmlns="http://www.w3.org/2000/svg">
<path d="M6.45801 7.95833C6.87467 7.95833 7.22884 7.8125 7.52051 7.52083C7.81218 7.22917 7.95801 6.875 7.95801 6.45833C7.95801 6.04167 7.81218 5.6875 7.52051 5.39583C7.22884 5.10417 6.87467 4.95833 6.45801 4.95833C6.04134 4.95833 5.68718 5.10417 5.39551 5.39583C5.10384 5.6875 4.95801 6.04167 4.95801 6.45833C4.95801 6.875 5.10384 7.22917 5.39551 7.52083C5.68718 7.8125 6.04134 7.95833 6.45801 7.95833ZM6.45801 14.5C8.16634 12.9861 9.44412 11.5486 10.2913 10.1875C11.1525 8.8125 11.583 7.625 11.583 6.625C11.583 5.04167 11.09 3.76389 10.1038 2.79167C9.11773 1.81944 7.90245 1.33333 6.45801 1.33333C5.01356 1.33333 3.79829 1.81944 2.81217 2.79167C1.82606 3.76389 1.33301 5.04167 1.33301 6.625C1.33301 7.625 1.75662 8.8125 2.60384 10.1875C3.46495 11.5486 4.74967 12.9861 6.45801 14.5ZM6.45801 15.9583C6.3469 15.9583 6.24273 15.9444 6.14551 15.9167C6.04829 15.8889 5.95106 15.8403 5.85384 15.7708C3.88162 13.9653 2.4094 12.3125 1.43717 10.8125C0.478841 9.29861 -0.000325322 7.90278 -0.000325322 6.625C-0.000325322 4.59722 0.645508 2.98611 1.93717 1.79167C3.22884 0.597221 4.73579 -1.19209e-06 6.45801 -1.19209e-06C8.18023 -1.19209e-06 9.68718 0.597221 10.9788 1.79167C12.2705 2.98611 12.9163 4.59722 12.9163 6.625C12.9163 7.90278 12.4302 9.29861 11.458 10.8125C10.4997 12.3125 9.0344 13.9653 7.06217 15.7708C6.97884 15.8403 6.88162 15.8889 6.77051 15.9167C6.67329 15.9444 6.56912 15.9583 6.45801 15.9583Z" fill="#2563EB"/>
</svg>
