<svg width="13" height="16" viewBox="0 0 13 16" fill="none" xmlns="http://www.w3.org/2000/svg">
<path d="M1.58333 15.8332C1.13889 15.8332 0.763889 15.6804 0.458333 15.3748C0.152778 15.0693 2.98023e-07 14.6943 2.98023e-07 14.2498V1.58317C2.98023e-07 1.13873 0.152778 0.763726 0.458333 0.45817C0.763889 0.152614 1.13889 -0.000163555 1.58333 -0.000163555H10.9167C11.3611 -0.000163555 11.7361 0.152614 12.0417 0.45817C12.3472 0.763726 12.5 1.13873 12.5 1.58317V14.2498C12.5 14.6943 12.3472 15.0693 12.0417 15.3748C11.7361 15.6804 11.3611 15.8332 10.9167 15.8332H1.58333ZM1.58333 14.4998H10.9167C10.9722 14.4998 11.0278 14.4721 11.0833 14.4165C11.1389 14.3609 11.1667 14.3054 11.1667 14.2498V1.58317C11.1667 1.52761 11.1389 1.47206 11.0833 1.4165C11.0278 1.36095 10.9722 1.33317 10.9167 1.33317H9.41667V6.08317C9.41667 6.24984 9.34722 6.37484 9.20833 6.45817C9.06945 6.5415 8.92361 6.5415 8.77083 6.45817L7.52083 5.68734L6.27083 6.45817C6.11806 6.5415 5.97222 6.5415 5.83333 6.45817C5.69444 6.37484 5.625 6.24984 5.625 6.08317V1.33317H1.58333C1.52778 1.33317 1.47222 1.36095 1.41667 1.4165C1.36111 1.47206 1.33333 1.52761 1.33333 1.58317V14.2498C1.33333 14.3054 1.36111 14.3609 1.41667 14.4165C1.47222 14.4721 1.52778 14.4998 1.58333 14.4998ZM5.625 1.33317H7.52083H9.41667H5.625ZM1.58333 1.33317C1.52778 1.33317 1.47222 1.33317 1.41667 1.33317C1.36111 1.33317 1.33333 1.33317 1.33333 1.33317C1.33333 1.33317 1.36111 1.33317 1.41667 1.33317C1.47222 1.33317 1.52778 1.33317 1.58333 1.33317H5.625H7.52083H9.41667H10.9167C10.9722 1.33317 11.0278 1.33317 11.0833 1.33317C11.1389 1.33317 11.1667 1.33317 11.1667 1.33317C11.1667 1.33317 11.1389 1.33317 11.0833 1.33317C11.0278 1.33317 10.9722 1.33317 10.9167 1.33317H1.58333Z" fill="#4B5563"/>
</svg>
