<svg width="15" height="15" viewBox="0 0 15 15" fill="none" xmlns="http://www.w3.org/2000/svg">
<path d="M10.4997 7.72933C10.4025 7.72933 10.3052 7.71544 10.208 7.68766C10.1108 7.646 10.0205 7.57655 9.93717 7.47933L6.89551 4.43766C6.79829 4.35433 6.72884 4.26405 6.68717 4.16683C6.6594 4.06961 6.64551 3.97238 6.64551 3.87516C6.64551 3.76405 6.6594 3.66683 6.68717 3.5835C6.72884 3.48627 6.79829 3.38905 6.89551 3.29183L9.93717 0.250162C10.0205 0.166829 10.1108 0.104329 10.208 0.0626621C10.3052 0.0209953 10.4025 0.000161886 10.4997 0.000161886C10.5969 0.000161886 10.6941 0.0209953 10.7913 0.0626621C10.8886 0.104329 10.9788 0.166829 11.0622 0.250162L14.1038 3.29183C14.2011 3.38905 14.2705 3.48627 14.3122 3.5835C14.3538 3.68072 14.3747 3.77794 14.3747 3.87516C14.3747 3.97238 14.3538 4.06961 14.3122 4.16683C14.2705 4.26405 14.2011 4.35433 14.1038 4.43766L11.0622 7.47933C10.9788 7.57655 10.8886 7.646 10.7913 7.68766C10.6941 7.71544 10.5969 7.72933 10.4997 7.72933ZM0.791341 6.60433C0.583008 6.60433 0.395508 6.52794 0.228841 6.37516C0.0760636 6.22238 -0.000325263 6.03488 -0.000325263 5.81266V1.47933C-0.000325263 1.271 0.0760636 1.09044 0.228841 0.937662C0.395508 0.770995 0.583008 0.687662 0.791341 0.687662H5.10384C5.32606 0.687662 5.51356 0.770995 5.66634 0.937662C5.81912 1.09044 5.89551 1.271 5.89551 1.47933V5.81266C5.89551 6.03488 5.81912 6.22238 5.66634 6.37516C5.51356 6.52794 5.32606 6.60433 5.10384 6.60433H0.791341ZM8.56218 14.3543C8.33995 14.3543 8.15245 14.2779 7.99967 14.1252C7.8469 13.9585 7.77051 13.771 7.77051 13.5627V9.25016C7.77051 9.02794 7.8469 8.84044 7.99967 8.68766C8.15245 8.53488 8.33995 8.4585 8.56218 8.4585H12.8747C13.083 8.4585 13.2636 8.53488 13.4163 8.68766C13.583 8.84044 13.6663 9.02794 13.6663 9.25016V13.5627C13.6663 13.771 13.583 13.9585 13.4163 14.1252C13.2636 14.2779 13.083 14.3543 12.8747 14.3543H8.56218ZM0.791341 14.3543C0.583008 14.3543 0.395508 14.2779 0.228841 14.1252C0.0760636 13.9585 -0.000325263 13.771 -0.000325263 13.5627V9.25016C-0.000325263 9.02794 0.0760636 8.84044 0.228841 8.68766C0.395508 8.53488 0.583008 8.4585 0.791341 8.4585H5.10384C5.32606 8.4585 5.51356 8.53488 5.66634 8.68766C5.81912 8.84044 5.89551 9.02794 5.89551 9.25016V13.5627C5.89551 13.771 5.81912 13.9585 5.66634 14.1252C5.51356 14.2779 5.32606 14.3543 5.10384 14.3543H0.791341ZM1.33301 5.271H4.56218V2.04183H1.33301V5.271ZM10.5205 6.16683L12.7913 3.896L10.5205 1.62516L8.24968 3.896L10.5205 6.16683ZM9.10384 13.021H12.333V9.79183H9.10384V13.021ZM1.33301 13.021H4.56218V9.79183H1.33301V13.021Z" fill="#4B5563"/>
</svg>
