<svg width="15" height="15" viewBox="0 0 15 15" fill="none" xmlns="http://www.w3.org/2000/svg">
<path d="M1.58301 14.1668C1.13856 14.1668 0.763564 14.0141 0.458008 13.7085C0.152452 13.4029 -0.000325322 13.0279 -0.000325322 12.5835V1.5835C-0.000325322 1.13905 0.152452 0.76405 0.458008 0.458495C0.763564 0.15294 1.13856 0.000162363 1.58301 0.000162363H12.583C13.0275 0.000162363 13.4025 0.15294 13.708 0.458495C14.0136 0.76405 14.1663 1.13905 14.1663 1.5835V12.5835C14.1663 13.0279 14.0136 13.4029 13.708 13.7085C13.4025 14.0141 13.0275 14.1668 12.583 14.1668H1.58301ZM1.58301 12.8335H12.583C12.6525 12.8335 12.708 12.8127 12.7497 12.771C12.8052 12.7154 12.833 12.6529 12.833 12.5835V1.5835C12.833 1.51405 12.8052 1.4585 12.7497 1.41683C12.708 1.36127 12.6525 1.3335 12.583 1.3335H1.58301C1.51356 1.3335 1.45106 1.36127 1.39551 1.41683C1.35384 1.4585 1.33301 1.51405 1.33301 1.5835V12.5835C1.33301 12.6529 1.35384 12.7154 1.39551 12.771C1.45106 12.8127 1.51356 12.8335 1.58301 12.8335ZM3.87467 11.0418C4.04134 11.0418 4.19412 10.9793 4.33301 10.8543C4.4719 10.7154 4.54134 10.5557 4.54134 10.3752V7.75016C4.54134 7.56961 4.4719 7.41683 4.33301 7.29183C4.19412 7.15294 4.04134 7.0835 3.87467 7.0835C3.69412 7.0835 3.5344 7.15294 3.39551 7.29183C3.27051 7.41683 3.20801 7.56961 3.20801 7.75016V10.3752C3.20801 10.5557 3.27051 10.7154 3.39551 10.8543C3.5344 10.9793 3.69412 11.0418 3.87467 11.0418ZM10.2913 11.0418C10.4719 11.0418 10.6247 10.9793 10.7497 10.8543C10.8886 10.7154 10.958 10.5557 10.958 10.3752V3.64599C10.958 3.46544 10.8886 3.31266 10.7497 3.18766C10.6247 3.04877 10.4719 2.97933 10.2913 2.97933C10.1247 2.97933 9.9719 3.04877 9.83301 3.18766C9.69412 3.31266 9.62468 3.46544 9.62468 3.64599V10.3752C9.62468 10.5557 9.69412 10.7154 9.83301 10.8543C9.9719 10.9793 10.1247 11.0418 10.2913 11.0418ZM7.08301 11.0418C7.26356 11.0418 7.41634 10.9793 7.54134 10.8543C7.68023 10.7154 7.74968 10.5557 7.74968 10.3752V9.396C7.74968 9.21544 7.68023 9.06266 7.54134 8.93766C7.41634 8.79877 7.26356 8.72933 7.08301 8.72933C6.90245 8.72933 6.74273 8.79877 6.60384 8.93766C6.47884 9.06266 6.41634 9.21544 6.41634 9.396V10.3752C6.41634 10.5557 6.47884 10.7154 6.60384 10.8543C6.74273 10.9793 6.90245 11.0418 7.08301 11.0418ZM7.08301 7.0835C7.26356 7.0835 7.41634 7.021 7.54134 6.896C7.68023 6.75711 7.74968 6.59738 7.74968 6.41683V5.97933C7.74968 5.79877 7.68023 5.646 7.54134 5.52099C7.41634 5.396 7.26356 5.3335 7.08301 5.3335C6.90245 5.3335 6.74273 5.40294 6.60384 5.54183C6.47884 5.66683 6.41634 5.81961 6.41634 6.00016V6.43766C6.41634 6.61822 6.47884 6.771 6.60384 6.896C6.74273 7.021 6.90245 7.0835 7.08301 7.0835ZM1.33301 12.8335C1.33301 12.8335 1.33301 12.8127 1.33301 12.771C1.33301 12.7154 1.33301 12.6529 1.33301 12.5835V1.5835C1.33301 1.51405 1.33301 1.4585 1.33301 1.41683C1.33301 1.36127 1.33301 1.3335 1.33301 1.3335C1.33301 1.3335 1.33301 1.36127 1.33301 1.41683C1.33301 1.4585 1.33301 1.51405 1.33301 1.5835V12.5835C1.33301 12.6529 1.33301 12.7154 1.33301 12.771C1.33301 12.8127 1.33301 12.8335 1.33301 12.8335Z" fill="#4B5563"/>
</svg>
