<svg width="14" height="13" viewBox="0 0 14 13" fill="none" xmlns="http://www.w3.org/2000/svg">
<path d="M13.9834 3.63672C13.9651 5.42318 13.5276 6.97266 12.6709 8.28516C11.8141 9.61589 10.6565 10.5365 9.1982 11.0469C8.63309 11.2656 8.04065 11.375 7.42086 11.375C6.52763 11.3568 5.6982 11.1198 4.93257 10.6641C4.18518 10.2083 3.59273 9.57943 3.15523 8.77734C2.44429 9.50651 1.95211 10.1719 1.67867 10.7734C1.40523 11.375 1.26851 11.7031 1.26851 11.7578C1.17737 12.0677 0.967731 12.2318 0.639606 12.25C0.584918 12.25 0.530231 12.2409 0.475543 12.2227C0.11096 12.0951 -0.0439878 11.8307 0.0106997 11.4297C0.0836164 11.0286 0.411741 10.3359 0.995075 9.35156C1.59664 8.38542 2.55367 7.47396 3.86617 6.61719C5.17867 5.76042 6.9469 5.30469 9.17086 5.25C9.44429 5.23177 9.59013 5.08594 9.60836 4.8125C9.59013 4.53906 9.44429 4.39323 9.17086 4.375C7.71252 4.39323 6.43648 4.59375 5.34273 4.97656C4.26721 5.3776 3.35575 5.86979 2.60836 6.45312C2.60836 6.14323 2.64481 5.84245 2.71773 5.55078C2.91825 4.62109 3.33752 3.82812 3.97554 3.17188C4.61356 2.53385 5.3883 2.09635 6.29976 1.85938C7.08362 1.69531 7.8219 1.69531 8.51461 1.85938C9.29846 2.04167 10.0641 1.99609 10.8115 1.72266C11.5589 1.44922 12.1513 0.938802 12.5888 0.191406C12.68 0.0638021 12.7985 0 12.9443 0C13.0901 0 13.1995 0.0729167 13.2724 0.21875C13.7281 1.27604 13.9651 2.41536 13.9834 3.63672Z" fill="#10B981"/>
</svg>
