<svg width="200" height="60" viewBox="0 0 200 60" fill="none" xmlns="http://www.w3.org/2000/svg">
<path d="M84.6347 33.7532V29.9286H85.9503C86.9294 29.9286 87.7045 29.6532 88.2757 29.1025C88.8672 28.5313 89.163 27.7766 89.163 26.8383V10.9587H93.3547V26.6853C93.3547 28.0928 93.0488 29.3269 92.4368 30.3875C91.8453 31.4482 90.9886 32.2743 89.8667 32.8659C88.7652 33.4574 87.4598 33.7532 85.9503 33.7532H84.6347ZM102.368 34.1203C101.205 34.1203 100.195 33.9266 99.3388 33.539C98.4821 33.1514 97.8191 32.6007 97.35 31.8868C96.8808 31.1525 96.6463 30.306 96.6463 29.3473C96.6463 28.4294 96.8502 27.6134 97.2582 26.8995C97.6661 26.1652 98.2985 25.5533 99.1552 25.0637C100.012 24.5742 101.093 24.2274 102.398 24.0234L107.845 23.1361V26.1958L103.163 26.9913C102.368 27.1341 101.776 27.3891 101.389 27.7562C101.001 28.1234 100.807 28.6027 100.807 29.1943C100.807 29.7654 101.022 30.2244 101.45 30.5711C101.899 30.8975 102.449 31.0607 103.102 31.0607C103.938 31.0607 104.673 30.8873 105.305 30.5405C105.958 30.1734 106.458 29.6736 106.804 29.0413C107.172 28.409 107.355 27.7154 107.355 26.9607V22.6772C107.355 21.9633 107.07 21.3717 106.498 20.9026C105.948 20.413 105.213 20.1683 104.295 20.1683C103.439 20.1683 102.674 20.4028 102.001 20.872C101.348 21.3207 100.869 21.9225 100.563 22.6772L97.2888 21.0862C97.6151 20.2091 98.1251 19.4543 98.8186 18.822C99.5325 18.1693 100.369 17.6593 101.328 17.2922C102.286 16.925 103.327 16.7414 104.448 16.7414C105.815 16.7414 107.019 16.9964 108.059 17.5063C109.099 17.9959 109.905 18.6894 110.476 19.5869C111.067 20.464 111.363 21.4941 111.363 22.6772V33.7532H107.569V30.9077L108.426 30.8465C107.998 31.5604 107.488 32.1621 106.896 32.6517C106.305 33.1208 105.631 33.488 104.877 33.7532C104.122 33.9979 103.286 34.1203 102.368 34.1203ZM115.068 33.7532V10.5915H119.076V25.7674L117.546 25.3085L125.379 17.1086H130.366L124.216 23.8093L130.489 33.7532H125.899L120.453 25.1249L122.839 24.6354L117.822 30.0204L119.076 27.5726V33.7532H115.068Z" fill="#0052A4"/>
<path d="M141.844 34.1203C140.09 34.1203 138.53 33.7532 137.163 33.0189C135.817 32.2845 134.756 31.2748 133.981 29.9898C133.206 28.7047 132.818 27.2463 132.818 25.6145V10.9587H136.98V25.4003C136.98 26.3386 137.184 27.1851 137.592 27.9398C138.02 28.6945 138.601 29.2861 139.336 29.7144C140.07 30.1224 140.906 30.3263 141.844 30.3263C142.803 30.3263 143.639 30.1224 144.353 29.7144C145.088 29.2861 145.659 28.6945 146.067 27.9398C146.495 27.1851 146.709 26.3386 146.709 25.4003V10.9587H150.87V25.6145C150.87 27.2463 150.483 28.7047 149.708 29.9898C148.933 31.2748 147.862 32.2845 146.495 33.0189C145.149 33.7532 143.599 34.1203 141.844 34.1203Z" fill="#19AE5D"/>
<circle cx="62.4506" cy="15.8936" r="4.06001" fill="#19AE5D"/>
<path d="M65.3211 28.912C65.8889 28.3442 66.2755 27.6208 66.4322 26.8332C66.5888 26.0457 66.5084 25.2293 66.2012 24.4875C65.8939 23.7456 65.3735 23.1115 64.7058 22.6654C64.0381 22.2193 63.2532 21.9811 62.4502 21.9811C61.6472 21.9811 60.8622 22.2193 60.1946 22.6654C59.5269 23.1115 59.0065 23.7456 58.6992 24.4875C58.3919 25.2293 58.3115 26.0457 58.4682 26.8332C58.6249 27.6208 59.0115 28.3442 59.5793 28.912L62.4502 26.0412L65.3211 28.912Z" fill="#19AE5D"/>
<path d="M75.4714 18.7629C74.9036 19.3307 74.1802 19.7174 73.3927 19.874C72.6051 20.0307 71.7888 19.9503 71.0469 19.643C70.305 19.3357 69.6709 18.8153 69.2248 18.1477C68.7787 17.48 68.5406 16.695 68.5406 15.892C68.5406 15.0891 68.7787 14.3041 69.2248 13.6364C69.6709 12.9688 70.305 12.4484 71.0469 12.1411C71.7888 11.8338 72.6051 11.7534 73.3927 11.9101C74.1802 12.0667 74.9036 12.4534 75.4714 13.0212L72.6006 15.892L75.4714 18.7629Z" fill="#19AE5D"/>
<path d="M49.4299 13.0215C49.9977 12.4537 50.7211 12.067 51.5087 11.9103C52.2963 11.7537 53.1126 11.8341 53.8545 12.1414C54.5963 12.4486 55.2304 12.969 55.6766 13.6367C56.1227 14.3044 56.3608 15.0893 56.3608 15.8923C56.3608 16.6953 56.1227 17.4803 55.6766 18.1479C55.2304 18.8156 54.5963 19.336 53.8545 19.6433C53.1126 19.9506 52.2963 20.031 51.5087 19.8743C50.7211 19.7177 49.9977 19.331 49.4299 18.7632L52.3008 15.8923L49.4299 13.0215Z" fill="#19AE5D"/>
<path d="M48.2403 5.74297C48.2403 6.54596 48.4785 7.33092 48.9246 7.99859C49.3707 8.66625 50.0048 9.18664 50.7466 9.49393C51.4885 9.80122 52.3048 9.88162 53.0924 9.72497C53.88 9.56831 54.6034 9.18163 55.1712 8.61383C55.739 8.04603 56.1257 7.3226 56.2823 6.53504C56.439 5.74747 56.3586 4.93114 56.0513 4.18927C55.744 3.4474 55.2236 2.81332 54.556 2.3672C53.8883 1.92108 53.1033 1.68296 52.3003 1.68296L52.3003 5.74297L48.2403 5.74297Z" fill="#19AE5D"/>
<path d="M65.3206 2.87102C65.8884 3.43883 66.2751 4.16225 66.4317 4.94981C66.5884 5.73738 66.508 6.55371 66.2007 7.29558C65.8934 8.03745 65.373 8.67154 64.7053 9.11766C64.0377 9.56378 63.2527 9.80189 62.4497 9.80189C61.6467 9.80189 60.8618 9.56378 60.1941 9.11766C59.5264 8.67154 59.0061 8.03745 58.6988 7.29558C58.3915 6.55371 58.3111 5.73738 58.4677 4.94981C58.6244 4.16225 59.0111 3.43883 59.5789 2.87102L62.4497 5.74188L65.3206 2.87102Z" fill="#19AE5D"/>
<path d="M62.4501 38.2458C60.0479 38.2458 57.911 37.7027 56.0395 36.6165C54.196 35.5304 52.7435 34.0368 51.682 32.136C50.6206 30.2352 50.0898 28.0779 50.0898 25.6641V21.7655H55.7881V25.3473C55.7881 26.7352 56.0675 27.9874 56.6261 29.1037C57.2127 30.2201 58.0088 31.0951 59.0144 31.7287C60.0199 32.3321 61.1652 32.6339 62.4501 32.6339C63.7629 32.6339 64.9082 32.3321 65.8858 31.7287C66.8914 31.0951 67.6735 30.2201 68.2322 29.1037C68.8188 27.9874 69.112 26.7352 69.112 25.3473V21.7655H74.8103V25.6641C74.8103 28.0779 74.2796 30.2352 73.2182 32.136C72.1567 34.0368 70.6902 35.5304 68.8188 36.6165C66.9752 37.7027 64.8523 38.2458 62.4501 38.2458Z" fill="#0052A4"/>
<path d="M34.2818 55.7532V48.4804H37.0091C37.5678 48.4804 38.0365 48.5846 38.4153 48.7929C38.7965 49.0013 39.0841 49.2877 39.2782 49.6523C39.4747 50.0145 39.573 50.4265 39.573 50.8881C39.573 51.3545 39.4747 51.7688 39.2782 52.131C39.0817 52.4932 38.7917 52.7785 38.4082 52.9868C38.0247 53.1928 37.5524 53.2958 36.9913 53.2958H35.1838V52.2127H36.8137C37.1404 52.2127 37.408 52.1559 37.6163 52.0422C37.8246 51.9286 37.9785 51.7723 38.0779 51.5735C38.1797 51.3746 38.2306 51.1462 38.2306 50.8881C38.2306 50.6301 38.1797 50.4028 38.0779 50.2063C37.9785 50.0098 37.8234 49.8571 37.6127 49.7482C37.4044 49.6369 37.1357 49.5813 36.8066 49.5813H35.5993V55.7532H34.2818ZM42.1325 55.8633C41.7868 55.8633 41.4755 55.8017 41.1985 55.6786C40.9239 55.5531 40.7061 55.3685 40.5451 55.1246C40.3865 54.8808 40.3072 54.5801 40.3072 54.2226C40.3072 53.9149 40.364 53.6604 40.4776 53.4591C40.5913 53.2579 40.7463 53.0969 40.9428 52.9762C41.1393 52.8554 41.3607 52.7643 41.6069 52.7027C41.8555 52.6388 42.1123 52.5927 42.3775 52.5643C42.6971 52.5311 42.9563 52.5015 43.1552 52.4755C43.354 52.4471 43.4985 52.4045 43.5884 52.3476C43.6808 52.2884 43.7269 52.1973 43.7269 52.0742V52.0529C43.7269 51.7854 43.6476 51.5782 43.489 51.4314C43.3304 51.2847 43.1019 51.2113 42.8036 51.2113C42.4888 51.2113 42.239 51.2799 42.0543 51.4172C41.872 51.5545 41.7489 51.7167 41.685 51.9037L40.4847 51.7333C40.5794 51.4018 40.7357 51.1249 40.9535 50.9023C41.1713 50.6774 41.4376 50.5093 41.7525 50.3981C42.0674 50.2844 42.4154 50.2276 42.7965 50.2276C43.0593 50.2276 43.3209 50.2584 43.5813 50.3199C43.8417 50.3815 44.0797 50.4833 44.2951 50.6253C44.5105 50.765 44.6834 50.9556 44.8136 51.1971C44.9461 51.4385 45.0124 51.7404 45.0124 52.1026V55.7532H43.7766V55.0039H43.734C43.6559 55.1554 43.5458 55.2974 43.4038 55.43C43.2641 55.5602 43.0877 55.6656 42.8746 55.7461C42.6639 55.8242 42.4165 55.8633 42.1325 55.8633ZM42.4663 54.9187C42.7243 54.9187 42.948 54.8678 43.1374 54.766C43.3268 54.6618 43.4724 54.5245 43.5742 54.354C43.6784 54.1836 43.7305 53.9977 43.7305 53.7965V53.1537C43.6902 53.1869 43.6216 53.2177 43.5245 53.2461C43.4298 53.2745 43.3233 53.2993 43.2049 53.3206C43.0865 53.342 42.9693 53.3609 42.8533 53.3775C42.7373 53.394 42.6367 53.4082 42.5515 53.4201C42.3597 53.4461 42.1881 53.4887 42.0366 53.5479C41.8851 53.6071 41.7655 53.69 41.6779 53.7965C41.5903 53.9007 41.5465 54.0356 41.5465 54.2013C41.5465 54.4381 41.6329 54.6168 41.8058 54.7375C41.9786 54.8583 42.1987 54.9187 42.4663 54.9187ZM47.5906 52.5572V55.7532H46.305V50.2986H47.5337V51.2255H47.5977C47.7231 50.9201 47.9232 50.6774 48.1978 50.4975C48.4748 50.3176 48.8169 50.2276 49.2241 50.2276C49.6005 50.2276 49.9284 50.3081 50.2077 50.4691C50.4895 50.6301 50.7073 50.8633 50.8612 51.1687C51.0174 51.4741 51.0943 51.8446 51.092 52.2802V55.7532H49.8065V52.479C49.8065 52.1144 49.7118 51.8292 49.5224 51.6232C49.3353 51.4172 49.0761 51.3143 48.7447 51.3143C48.5198 51.3143 48.3197 51.364 48.1445 51.4634C47.9717 51.5605 47.8356 51.7013 47.7362 51.886C47.6391 52.0706 47.5906 52.2944 47.5906 52.5572ZM55.1225 50.2986V51.2929H51.9869V50.2986H55.1225ZM52.761 48.9918H54.0465V54.1125C54.0465 54.2854 54.0726 54.4179 54.1246 54.5103C54.1791 54.6002 54.2501 54.6618 54.3377 54.6949C54.4253 54.7281 54.5224 54.7447 54.6289 54.7447C54.7094 54.7447 54.7828 54.7387 54.8491 54.7269C54.9177 54.7151 54.9698 54.7044 55.0053 54.6949L55.2219 55.6999C55.1533 55.7236 55.055 55.7496 54.9272 55.778C54.8017 55.8064 54.6478 55.823 54.4656 55.8277C54.1436 55.8372 53.8536 55.7887 53.5955 55.6822C53.3375 55.5732 53.1327 55.4052 52.9812 55.1779C52.832 54.9506 52.7586 54.6665 52.761 54.3256V48.9918ZM57.7672 55.8633C57.4216 55.8633 57.1103 55.8017 56.8333 55.6786C56.5587 55.5531 56.3408 55.3685 56.1799 55.1246C56.0212 54.8808 55.9419 54.5801 55.9419 54.2226C55.9419 53.9149 55.9988 53.6604 56.1124 53.4591C56.226 53.2579 56.3811 53.0969 56.5776 52.9762C56.7741 52.8554 56.9954 52.7643 57.2417 52.7027C57.4902 52.6388 57.7471 52.5927 58.0123 52.5643C58.3319 52.5311 58.5911 52.5015 58.79 52.4755C58.9888 52.4471 59.1332 52.4045 59.2232 52.3476C59.3155 52.2884 59.3617 52.1973 59.3617 52.0742V52.0529C59.3617 51.7854 59.2824 51.5782 59.1238 51.4314C58.9651 51.2847 58.7367 51.2113 58.4384 51.2113C58.1235 51.2113 57.8738 51.2799 57.6891 51.4172C57.5068 51.5545 57.3837 51.7167 57.3198 51.9037L56.1195 51.7333C56.2142 51.4018 56.3704 51.1249 56.5882 50.9023C56.806 50.6774 57.0724 50.5093 57.3873 50.3981C57.7021 50.2844 58.0501 50.2276 58.4313 50.2276C58.6941 50.2276 58.9557 50.2584 59.2161 50.3199C59.4765 50.3815 59.7144 50.4833 59.9299 50.6253C60.1453 50.765 60.3181 50.9556 60.4483 51.1971C60.5809 51.4385 60.6472 51.7404 60.6472 52.1026V55.7532H59.4114V55.0039H59.3688C59.2907 55.1554 59.1806 55.2974 59.0385 55.43C58.8989 55.5602 58.7225 55.6656 58.5094 55.7461C58.2987 55.8242 58.0513 55.8633 57.7672 55.8633ZM58.101 54.9187C58.3591 54.9187 58.5828 54.8678 58.7722 54.766C58.9616 54.6618 59.1072 54.5245 59.209 54.354C59.3132 54.1836 59.3652 53.9977 59.3652 53.7965V53.1537C59.325 53.1869 59.2563 53.2177 59.1593 53.2461C59.0646 53.2745 58.958 53.2993 58.8397 53.3206C58.7213 53.342 58.6041 53.3609 58.4881 53.3775C58.3721 53.394 58.2715 53.4082 58.1863 53.4201C57.9945 53.4461 57.8229 53.4887 57.6713 53.5479C57.5198 53.6071 57.4003 53.69 57.3127 53.7965C57.2251 53.9007 57.1813 54.0356 57.1813 54.2013C57.1813 54.4381 57.2677 54.6168 57.4405 54.7375C57.6133 54.8583 57.8335 54.9187 58.101 54.9187ZM65.4164 53.4591V50.2986H66.7019V55.7532H65.4554V54.7837H65.3986C65.2755 55.0891 65.0731 55.3389 64.7914 55.533C64.512 55.7271 64.1676 55.8242 63.758 55.8242C63.4005 55.8242 63.0845 55.7449 62.8098 55.5863C62.5376 55.4253 62.3245 55.1921 62.1706 54.8867C62.0167 54.5789 61.9398 54.2072 61.9398 53.7716V50.2986H63.2253V53.5728C63.2253 53.9184 63.32 54.193 63.5094 54.3966C63.6988 54.6002 63.9474 54.702 64.2551 54.702C64.4445 54.702 64.628 54.6559 64.8056 54.5635C64.9831 54.4712 65.1287 54.3339 65.2424 54.1516C65.3584 53.967 65.4164 53.7361 65.4164 53.4591ZM75.1456 48.4804H76.4631V53.2319C76.4631 53.7527 76.34 54.2108 76.0938 54.6062C75.8499 55.0015 75.5066 55.3105 75.0639 55.533C74.6212 55.7532 74.1039 55.8633 73.5121 55.8633C72.9179 55.8633 72.3994 55.7532 71.9567 55.533C71.514 55.3105 71.1707 55.0015 70.9268 54.6062C70.683 54.2108 70.5611 53.7527 70.5611 53.2319V48.4804H71.8786V53.1218C71.8786 53.4248 71.9448 53.6947 72.0774 53.9314C72.2124 54.1682 72.4018 54.354 72.6456 54.489C72.8894 54.6215 73.1783 54.6878 73.5121 54.6878C73.8459 54.6878 74.1347 54.6215 74.3786 54.489C74.6248 54.354 74.8142 54.1682 74.9467 53.9314C75.0793 53.6947 75.1456 53.4248 75.1456 53.1218V48.4804ZM79.8624 55.8491C79.4339 55.8491 79.0504 55.739 78.7118 55.5188C78.3733 55.2986 78.1058 54.979 77.9093 54.56C77.7128 54.141 77.6145 53.632 77.6145 53.033C77.6145 52.4269 77.714 51.9156 77.9128 51.4989C78.1141 51.0799 78.3851 50.7638 78.726 50.5508C79.0669 50.3353 79.4469 50.2276 79.8659 50.2276C80.1855 50.2276 80.4483 50.2821 80.6543 50.391C80.8603 50.4975 81.0236 50.6265 81.1444 50.778C81.2651 50.9272 81.3586 51.068 81.4249 51.2006H81.4782V48.4804H82.7672V55.7532H81.503V54.8938H81.4249C81.3586 55.0264 81.2627 55.1672 81.1373 55.3164C81.0118 55.4632 80.8461 55.5886 80.6401 55.6928C80.4341 55.797 80.1749 55.8491 79.8624 55.8491ZM80.2211 54.7944C80.4933 54.7944 80.7253 54.721 80.9171 54.5742C81.1088 54.425 81.2544 54.2179 81.3539 53.9527C81.4533 53.6876 81.503 53.3786 81.503 53.0259C81.503 52.6732 81.4533 52.3666 81.3539 52.1062C81.2568 51.8457 81.1124 51.6433 80.9206 51.4989C80.7312 51.3545 80.498 51.2823 80.2211 51.2823C79.9346 51.2823 79.6955 51.3569 79.5037 51.506C79.312 51.6552 79.1676 51.8611 79.0705 52.1239C78.9734 52.3867 78.9249 52.6874 78.9249 53.0259C78.9249 53.3668 78.9734 53.671 79.0705 53.9385C79.1699 54.2037 79.3155 54.4132 79.5073 54.5671C79.7014 54.7186 79.9393 54.7944 80.2211 54.7944ZM85.7067 55.8633C85.361 55.8633 85.0497 55.8017 84.7727 55.6786C84.4981 55.5531 84.2803 55.3685 84.1193 55.1246C83.9607 54.8808 83.8814 54.5801 83.8814 54.2226C83.8814 53.9149 83.9382 53.6604 84.0518 53.4591C84.1655 53.2579 84.3205 53.0969 84.517 52.9762C84.7135 52.8554 84.9349 52.7643 85.1811 52.7027C85.4297 52.6388 85.6866 52.5927 85.9517 52.5643C86.2713 52.5311 86.5305 52.5015 86.7294 52.4755C86.9283 52.4471 87.0727 52.4045 87.1626 52.3476C87.255 52.2884 87.3011 52.1973 87.3011 52.0742V52.0529C87.3011 51.7854 87.2218 51.5782 87.0632 51.4314C86.9046 51.2847 86.6761 51.2113 86.3778 51.2113C86.063 51.2113 85.8132 51.2799 85.6286 51.4172C85.4463 51.5545 85.3232 51.7167 85.2592 51.9037L84.0589 51.7333C84.1536 51.4018 84.3099 51.1249 84.5277 50.9023C84.7455 50.6774 85.0118 50.5093 85.3267 50.3981C85.6416 50.2844 85.9896 50.2276 86.3707 50.2276C86.6335 50.2276 86.8951 50.2584 87.1555 50.3199C87.416 50.3815 87.6539 50.4833 87.8693 50.6253C88.0848 50.765 88.2576 50.9556 88.3878 51.1971C88.5204 51.4385 88.5866 51.7404 88.5866 52.1026V55.7532H87.3509V55.0039H87.3082C87.2301 55.1554 87.12 55.2974 86.978 55.43C86.8383 55.5602 86.6619 55.6656 86.4489 55.7461C86.2382 55.8242 85.9908 55.8633 85.7067 55.8633ZM86.0405 54.9187C86.2985 54.9187 86.5223 54.8678 86.7116 54.766C86.901 54.6618 87.0466 54.5245 87.1484 54.354C87.2526 54.1836 87.3047 53.9977 87.3047 53.7965V53.1537C87.2644 53.1869 87.1958 53.2177 87.0987 53.2461C87.004 53.2745 86.8975 53.2993 86.7791 53.3206C86.6607 53.342 86.5436 53.3609 86.4276 53.3775C86.3116 53.394 86.2109 53.4082 86.1257 53.4201C85.9339 53.4461 85.7623 53.4887 85.6108 53.5479C85.4593 53.6071 85.3397 53.69 85.2521 53.7965C85.1645 53.9007 85.1207 54.0356 85.1207 54.2013C85.1207 54.4381 85.2071 54.6168 85.38 54.7375C85.5528 54.8583 85.773 54.9187 86.0405 54.9187ZM89.8793 55.7532V50.2986H91.1257V51.2077H91.1825C91.282 50.8929 91.4524 50.6502 91.6939 50.4797C91.9377 50.3069 92.2159 50.2205 92.5284 50.2205C92.5994 50.2205 92.6787 50.2241 92.7663 50.2312C92.8563 50.2359 92.9309 50.2442 92.9901 50.256V51.4385C92.9356 51.4196 92.8492 51.403 92.7308 51.3888C92.6148 51.3723 92.5024 51.364 92.3935 51.364C92.1591 51.364 91.9484 51.4149 91.7614 51.5167C91.5767 51.6161 91.4311 51.7546 91.3246 51.9322C91.218 52.1097 91.1648 52.3145 91.1648 52.5465V55.7532H89.8793ZM95.3161 55.8633C94.9704 55.8633 94.6591 55.8017 94.3821 55.6786C94.1075 55.5531 93.8897 55.3685 93.7287 55.1246C93.5701 54.8808 93.4908 54.5801 93.4908 54.2226C93.4908 53.9149 93.5476 53.6604 93.6612 53.4591C93.7749 53.2579 93.9299 53.0969 94.1264 52.9762C94.3229 52.8554 94.5443 52.7643 94.7905 52.7027C95.0391 52.6388 95.2959 52.5927 95.5611 52.5643C95.8807 52.5311 96.1399 52.5015 96.3388 52.4755C96.5376 52.4471 96.6821 52.4045 96.772 52.3476C96.8643 52.2884 96.9105 52.1973 96.9105 52.0742V52.0529C96.9105 51.7854 96.8312 51.5782 96.6726 51.4314C96.514 51.2847 96.2855 51.2113 95.9872 51.2113C95.6723 51.2113 95.4226 51.2799 95.2379 51.4172C95.0556 51.5545 94.9325 51.7167 94.8686 51.9037L93.6683 51.7333C93.763 51.4018 93.9193 51.1249 94.1371 50.9023C94.3549 50.6774 94.6212 50.5093 94.9361 50.3981C95.2509 50.2844 95.599 50.2276 95.9801 50.2276C96.2429 50.2276 96.5045 50.2584 96.7649 50.3199C97.0253 50.3815 97.2633 50.4833 97.4787 50.6253C97.6941 50.765 97.867 50.9556 97.9972 51.1971C98.1297 51.4385 98.196 51.7404 98.196 52.1026V55.7532H96.9602V55.0039H96.9176C96.8395 55.1554 96.7294 55.2974 96.5874 55.43C96.4477 55.5602 96.2713 55.6656 96.0582 55.7461C95.8475 55.8242 95.6001 55.8633 95.3161 55.8633ZM95.6499 54.9187C95.9079 54.9187 96.1316 54.8678 96.321 54.766C96.5104 54.6618 96.656 54.5245 96.7578 54.354C96.862 54.1836 96.9141 53.9977 96.9141 53.7965V53.1537C96.8738 53.1869 96.8052 53.2177 96.7081 53.2461C96.6134 53.2745 96.5069 53.2993 96.3885 53.3206C96.2701 53.342 96.1529 53.3609 96.0369 53.3775C95.9209 53.394 95.8203 53.4082 95.7351 53.4201C95.5433 53.4461 95.3717 53.4887 95.2202 53.5479C95.0687 53.6071 94.9491 53.69 94.8615 53.7965C94.7739 53.9007 94.7301 54.0356 94.7301 54.2013C94.7301 54.4381 94.8165 54.6168 94.9893 54.7375C95.1622 54.8583 95.3823 54.9187 95.6499 54.9187ZM100.998 54.7589L100.952 55.1495C100.919 55.4478 100.859 55.7508 100.774 56.0586C100.691 56.3687 100.604 56.654 100.511 56.9144C100.419 57.1748 100.344 57.3796 100.288 57.5287H99.4212C99.4543 57.3843 99.4993 57.1878 99.5561 56.9393C99.6153 56.6907 99.6721 56.4113 99.7266 56.1012C99.781 55.7911 99.8177 55.4762 99.8366 55.1566L99.8615 54.7589H100.998ZM107.62 48.4804H108.927V53.5941C108.924 54.0628 108.825 54.4665 108.628 54.805C108.432 55.1412 108.157 55.4004 107.805 55.5827C107.454 55.7626 107.046 55.8526 106.579 55.8526C106.153 55.8526 105.77 55.7768 105.429 55.6253C105.09 55.4715 104.822 55.2442 104.623 54.9435C104.424 54.6429 104.324 54.2688 104.324 53.8214H105.635C105.637 54.0179 105.68 54.1871 105.763 54.3292C105.848 54.4712 105.965 54.5801 106.114 54.6559C106.263 54.7316 106.435 54.7695 106.629 54.7695C106.84 54.7695 107.019 54.7257 107.165 54.6381C107.312 54.5482 107.423 54.4156 107.499 54.2404C107.577 54.0652 107.617 53.8498 107.62 53.5941V48.4804ZM111.869 55.8633C111.523 55.8633 111.212 55.8017 110.935 55.6786C110.66 55.5531 110.442 55.3685 110.281 55.1246C110.123 54.8808 110.044 54.5801 110.044 54.2226C110.044 53.9149 110.1 53.6604 110.214 53.4591C110.328 53.2579 110.483 53.0969 110.679 52.9762C110.876 52.8554 111.097 52.7643 111.343 52.7027C111.592 52.6388 111.849 52.5927 112.114 52.5643C112.433 52.5311 112.693 52.5015 112.892 52.4755C113.09 52.4471 113.235 52.4045 113.325 52.3476C113.417 52.2884 113.463 52.1973 113.463 52.0742V52.0529C113.463 51.7854 113.384 51.5782 113.225 51.4314C113.067 51.2847 112.838 51.2113 112.54 51.2113C112.225 51.2113 111.975 51.2799 111.791 51.4172C111.608 51.5545 111.485 51.7167 111.421 51.9037L110.221 51.7333C110.316 51.4018 110.472 51.1249 110.69 50.9023C110.908 50.6774 111.174 50.5093 111.489 50.3981C111.804 50.2844 112.152 50.2276 112.533 50.2276C112.796 50.2276 113.057 50.2584 113.318 50.3199C113.578 50.3815 113.816 50.4833 114.031 50.6253C114.247 50.765 114.42 50.9556 114.55 51.1971C114.682 51.4385 114.749 51.7404 114.749 52.1026V55.7532H113.513V55.0039H113.47C113.392 55.1554 113.282 55.2974 113.14 55.43C113 55.5602 112.824 55.6656 112.611 55.7461C112.4 55.8242 112.153 55.8633 111.869 55.8633ZM112.203 54.9187C112.461 54.9187 112.684 54.8678 112.874 54.766C113.063 54.6618 113.209 54.5245 113.311 54.354C113.415 54.1836 113.467 53.9977 113.467 53.7965V53.1537C113.427 53.1869 113.358 53.2177 113.261 53.2461C113.166 53.2745 113.06 53.2993 112.941 53.3206C112.823 53.342 112.706 53.3609 112.59 53.3775C112.474 53.394 112.373 53.4082 112.288 53.4201C112.096 53.4461 111.924 53.4887 111.773 53.5479C111.621 53.6071 111.502 53.69 111.414 53.7965C111.327 53.9007 111.283 54.0356 111.283 54.2013C111.283 54.4381 111.369 54.6168 111.542 54.7375C111.715 54.8583 111.935 54.9187 112.203 54.9187ZM118.414 57.9123C117.952 57.9123 117.555 57.8495 117.224 57.7241C116.892 57.6009 116.626 57.4352 116.425 57.2269C116.224 57.0186 116.084 56.7877 116.006 56.5344L117.164 56.2539C117.216 56.3604 117.291 56.4658 117.391 56.5699C117.49 56.6765 117.624 56.7641 117.792 56.8327C117.963 56.9037 118.177 56.9393 118.435 56.9393C118.799 56.9393 119.101 56.8505 119.34 56.6729C119.579 56.4977 119.699 56.2089 119.699 55.8064V54.7731H119.635C119.569 54.9056 119.472 55.0418 119.344 55.1814C119.218 55.3211 119.052 55.4383 118.843 55.533C118.637 55.6277 118.378 55.675 118.066 55.675C117.646 55.675 117.267 55.5768 116.926 55.3803C116.587 55.1814 116.317 54.8855 116.116 54.4925C115.917 54.0972 115.818 53.6024 115.818 53.0081C115.818 52.4092 115.917 51.9037 116.116 51.4918C116.317 51.0775 116.588 50.7638 116.929 50.5508C117.27 50.3353 117.65 50.2276 118.069 50.2276C118.389 50.2276 118.651 50.2821 118.857 50.391C119.066 50.4975 119.231 50.6265 119.355 50.778C119.478 50.9272 119.571 51.068 119.635 51.2006H119.706V50.2986H120.974V55.842C120.974 56.3083 120.863 56.6942 120.64 56.9996C120.418 57.305 120.113 57.5335 119.727 57.685C119.342 57.8365 118.904 57.9123 118.414 57.9123ZM118.424 54.6665C118.696 54.6665 118.928 54.6002 119.12 54.4677C119.312 54.3351 119.458 54.1445 119.557 53.8959C119.656 53.6473 119.706 53.3491 119.706 53.001C119.706 52.6578 119.656 52.3571 119.557 52.0991C119.46 51.841 119.316 51.641 119.124 51.4989C118.934 51.3545 118.701 51.2823 118.424 51.2823C118.138 51.2823 117.899 51.3569 117.707 51.506C117.515 51.6552 117.371 51.8599 117.274 52.1204C117.177 52.3784 117.128 52.672 117.128 53.001C117.128 53.3348 117.177 53.6272 117.274 53.8782C117.373 54.1268 117.519 54.3209 117.71 54.4606C117.905 54.5979 118.142 54.6665 118.424 54.6665ZM123.861 55.8633C123.515 55.8633 123.204 55.8017 122.927 55.6786C122.652 55.5531 122.435 55.3685 122.274 55.1246C122.115 54.8808 122.036 54.5801 122.036 54.2226C122.036 53.9149 122.093 53.6604 122.206 53.4591C122.32 53.2579 122.475 53.0969 122.671 52.9762C122.868 52.8554 123.089 52.7643 123.335 52.7027C123.584 52.6388 123.841 52.5927 124.106 52.5643C124.426 52.5311 124.685 52.5015 124.884 52.4755C125.083 52.4471 125.227 52.4045 125.317 52.3476C125.409 52.2884 125.455 52.1973 125.455 52.0742V52.0529C125.455 51.7854 125.376 51.5782 125.218 51.4314C125.059 51.2847 124.83 51.2113 124.532 51.2113C124.217 51.2113 123.968 51.2799 123.783 51.4172C123.601 51.5545 123.477 51.7167 123.414 51.9037L122.213 51.7333C122.308 51.4018 122.464 51.1249 122.682 50.9023C122.9 50.6774 123.166 50.5093 123.481 50.3981C123.796 50.2844 124.144 50.2276 124.525 50.2276C124.788 50.2276 125.049 50.2584 125.31 50.3199C125.57 50.3815 125.808 50.4833 126.024 50.6253C126.239 50.765 126.412 50.9556 126.542 51.1971C126.675 51.4385 126.741 51.7404 126.741 52.1026V55.7532H125.505V55.0039H125.463C125.384 55.1554 125.274 55.2974 125.132 55.43C124.993 55.5602 124.816 55.6656 124.603 55.7461C124.392 55.8242 124.145 55.8633 123.861 55.8633ZM124.195 54.9187C124.453 54.9187 124.677 54.8678 124.866 54.766C125.055 54.6618 125.201 54.5245 125.303 54.354C125.407 54.1836 125.459 53.9977 125.459 53.7965V53.1537C125.419 53.1869 125.35 53.2177 125.253 53.2461C125.158 53.2745 125.052 53.2993 124.933 53.3206C124.815 53.342 124.698 53.3609 124.582 53.3775C124.466 53.394 124.365 53.4082 124.28 53.4201C124.088 53.4461 123.917 53.4887 123.765 53.5479C123.614 53.6071 123.494 53.69 123.406 53.7965C123.319 53.9007 123.275 54.0356 123.275 54.2013C123.275 54.4381 123.361 54.6168 123.534 54.7375C123.707 54.8583 123.927 54.9187 124.195 54.9187ZM133.44 48.4804H134.747V53.5941C134.745 54.0628 134.645 54.4665 134.449 54.805C134.252 55.1412 133.978 55.4004 133.625 55.5827C133.274 55.7626 132.866 55.8526 132.4 55.8526C131.974 55.8526 131.59 55.7768 131.249 55.6253C130.911 55.4715 130.642 55.2442 130.443 54.9435C130.244 54.6429 130.145 54.2688 130.145 53.8214H131.455C131.457 54.0179 131.5 54.1871 131.583 54.3292C131.668 54.4712 131.785 54.5801 131.934 54.6559C132.084 54.7316 132.255 54.7695 132.449 54.7695C132.66 54.7695 132.839 54.7257 132.986 54.6381C133.132 54.5482 133.244 54.4156 133.319 54.2404C133.398 54.0652 133.438 53.8498 133.44 53.5941V48.4804ZM137.689 55.8633C137.343 55.8633 137.032 55.8017 136.755 55.6786C136.481 55.5531 136.263 55.3685 136.102 55.1246C135.943 54.8808 135.864 54.5801 135.864 54.2226C135.864 53.9149 135.921 53.6604 136.034 53.4591C136.148 53.2579 136.303 53.0969 136.499 52.9762C136.696 52.8554 136.917 52.7643 137.164 52.7027C137.412 52.6388 137.669 52.5927 137.934 52.5643C138.254 52.5311 138.513 52.5015 138.712 52.4755C138.911 52.4471 139.055 52.4045 139.145 52.3476C139.237 52.2884 139.284 52.1973 139.284 52.0742V52.0529C139.284 51.7854 139.204 51.5782 139.046 51.4314C138.887 51.2847 138.659 51.2113 138.36 51.2113C138.045 51.2113 137.796 51.2799 137.611 51.4172C137.429 51.5545 137.306 51.7167 137.242 51.9037L136.041 51.7333C136.136 51.4018 136.292 51.1249 136.51 50.9023C136.728 50.6774 136.994 50.5093 137.309 50.3981C137.624 50.2844 137.972 50.2276 138.353 50.2276C138.616 50.2276 138.878 50.2584 139.138 50.3199C139.398 50.3815 139.636 50.4833 139.852 50.6253C140.067 50.765 140.24 50.9556 140.37 51.1971C140.503 51.4385 140.569 51.7404 140.569 52.1026V55.7532H139.333V55.0039H139.291C139.213 55.1554 139.102 55.2974 138.96 55.43C138.821 55.5602 138.644 55.6656 138.431 55.7461C138.221 55.8242 137.973 55.8633 137.689 55.8633ZM138.023 54.9187C138.281 54.9187 138.505 54.8678 138.694 54.766C138.883 54.6618 139.029 54.5245 139.131 54.354C139.235 54.1836 139.287 53.9977 139.287 53.7965V53.1537C139.247 53.1869 139.178 53.2177 139.081 53.2461C138.986 53.2745 138.88 53.2993 138.762 53.3206C138.643 53.342 138.526 53.3609 138.41 53.3775C138.294 53.394 138.193 53.4082 138.108 53.4201C137.916 53.4461 137.745 53.4887 137.593 53.5479C137.442 53.6071 137.322 53.69 137.235 53.7965C137.147 53.9007 137.103 54.0356 137.103 54.2013C137.103 54.4381 137.19 54.6168 137.362 54.7375C137.535 54.8583 137.755 54.9187 138.023 54.9187ZM143.034 54.0415L143.03 52.4897H143.236L145.196 50.2986H146.698L144.287 52.9833H144.021L143.034 54.0415ZM141.862 55.7532V48.4804H143.147V55.7532H141.862ZM145.285 55.7532L143.509 53.2709L144.376 52.3654L146.823 55.7532H145.285ZM149.125 55.8633C148.779 55.8633 148.468 55.8017 148.191 55.6786C147.916 55.5531 147.698 55.3685 147.537 55.1246C147.379 54.8808 147.299 54.5801 147.299 54.2226C147.299 53.9149 147.356 53.6604 147.47 53.4591C147.583 53.2579 147.739 53.0969 147.935 52.9762C148.132 52.8554 148.353 52.7643 148.599 52.7027C148.848 52.6388 149.105 52.5927 149.37 52.5643C149.689 52.5311 149.949 52.5015 150.147 52.4755C150.346 52.4471 150.491 52.4045 150.581 52.3476C150.673 52.2884 150.719 52.1973 150.719 52.0742V52.0529C150.719 51.7854 150.64 51.5782 150.481 51.4314C150.323 51.2847 150.094 51.2113 149.796 51.2113C149.481 51.2113 149.231 51.2799 149.047 51.4172C148.864 51.5545 148.741 51.7167 148.677 51.9037L147.477 51.7333C147.572 51.4018 147.728 51.1249 147.946 50.9023C148.163 50.6774 148.43 50.5093 148.745 50.3981C149.06 50.2844 149.408 50.2276 149.789 50.2276C150.051 50.2276 150.313 50.2584 150.574 50.3199C150.834 50.3815 151.072 50.4833 151.287 50.6253C151.503 50.765 151.676 50.9556 151.806 51.1971C151.938 51.4385 152.005 51.7404 152.005 52.1026V55.7532H150.769V55.0039H150.726C150.648 55.1554 150.538 55.2974 150.396 55.43C150.256 55.5602 150.08 55.6656 149.867 55.7461C149.656 55.8242 149.409 55.8633 149.125 55.8633ZM149.458 54.9187C149.717 54.9187 149.94 54.8678 150.13 54.766C150.319 54.6618 150.465 54.5245 150.566 54.354C150.671 54.1836 150.723 53.9977 150.723 53.7965V53.1537C150.682 53.1869 150.614 53.2177 150.517 53.2461C150.422 53.2745 150.315 53.2993 150.197 53.3206C150.079 53.342 149.962 53.3609 149.846 53.3775C149.73 53.394 149.629 53.4082 149.544 53.4201C149.352 53.4461 149.18 53.4887 149.029 53.5479C148.877 53.6071 148.758 53.69 148.67 53.7965C148.583 53.9007 148.539 54.0356 148.539 54.2013C148.539 54.4381 148.625 54.6168 148.798 54.7375C148.971 54.8583 149.191 54.9187 149.458 54.9187ZM153.297 55.7532V50.2986H154.544V51.2077H154.6C154.7 50.8929 154.87 50.6502 155.112 50.4797C155.356 50.3069 155.634 50.2205 155.946 50.2205C156.017 50.2205 156.097 50.2241 156.184 50.2312C156.274 50.2359 156.349 50.2442 156.408 50.256V51.4385C156.354 51.4196 156.267 51.403 156.149 51.3888C156.033 51.3723 155.92 51.364 155.811 51.364C155.577 51.364 155.366 51.4149 155.179 51.5167C154.995 51.6161 154.849 51.7546 154.743 51.9322C154.636 52.1097 154.583 52.3145 154.583 52.5465V55.7532H153.297ZM160.279 50.2986V51.2929H157.143V50.2986H160.279ZM157.917 48.9918H159.203V54.1125C159.203 54.2854 159.229 54.4179 159.281 54.5103C159.335 54.6002 159.406 54.6618 159.494 54.6949C159.582 54.7281 159.679 54.7447 159.785 54.7447C159.866 54.7447 159.939 54.7387 160.005 54.7269C160.074 54.7151 160.126 54.7044 160.162 54.6949L160.378 55.6999C160.31 55.7236 160.211 55.7496 160.083 55.778C159.958 55.8064 159.804 55.823 159.622 55.8277C159.3 55.8372 159.01 55.7887 158.752 55.6822C158.494 55.5732 158.289 55.4052 158.137 55.1779C157.988 54.9506 157.915 54.6665 157.917 54.3256V48.9918ZM162.923 55.8633C162.578 55.8633 162.267 55.8017 161.99 55.6786C161.715 55.5531 161.497 55.3685 161.336 55.1246C161.177 54.8808 161.098 54.5801 161.098 54.2226C161.098 53.9149 161.155 53.6604 161.269 53.4591C161.382 53.2579 161.537 53.0969 161.734 52.9762C161.93 52.8554 162.152 52.7643 162.398 52.7027C162.646 52.6388 162.903 52.5927 163.169 52.5643C163.488 52.5311 163.747 52.5015 163.946 52.4755C164.145 52.4471 164.289 52.4045 164.379 52.3476C164.472 52.2884 164.518 52.1973 164.518 52.0742V52.0529C164.518 51.7854 164.439 51.5782 164.28 51.4314C164.121 51.2847 163.893 51.2113 163.595 51.2113C163.28 51.2113 163.03 51.2799 162.845 51.4172C162.663 51.5545 162.54 51.7167 162.476 51.9037L161.276 51.7333C161.37 51.4018 161.527 51.1249 161.744 50.9023C161.962 50.6774 162.229 50.5093 162.544 50.3981C162.858 50.2844 163.206 50.2276 163.588 50.2276C163.85 50.2276 164.112 50.2584 164.372 50.3199C164.633 50.3815 164.871 50.4833 165.086 50.6253C165.302 50.765 165.474 50.9556 165.605 51.1971C165.737 51.4385 165.803 51.7404 165.803 52.1026V55.7532H164.568V55.0039H164.525C164.447 55.1554 164.337 55.2974 164.195 55.43C164.055 55.5602 163.879 55.6656 163.666 55.7461C163.455 55.8242 163.208 55.8633 162.923 55.8633ZM163.257 54.9187C163.515 54.9187 163.739 54.8678 163.928 54.766C164.118 54.6618 164.263 54.5245 164.365 54.354C164.469 54.1836 164.521 53.9977 164.521 53.7965V53.1537C164.481 53.1869 164.413 53.2177 164.316 53.2461C164.221 53.2745 164.114 53.2993 163.996 53.3206C163.878 53.342 163.76 53.3609 163.644 53.3775C163.528 53.394 163.428 53.4082 163.343 53.4201C163.151 53.4461 162.979 53.4887 162.828 53.5479C162.676 53.6071 162.557 53.69 162.469 53.7965C162.381 53.9007 162.338 54.0356 162.338 54.2013C162.338 54.4381 162.424 54.6168 162.597 54.7375C162.77 54.8583 162.99 54.9187 163.257 54.9187Z" fill="#31343D"/>
</svg>
